<?xml version="1.0" encoding="UTF-8"?>
<svg width="32px" height="32px" viewBox="0 0 32 32" version="1.1" xmlns="http://www.w3.org/2000/svg" xmlns:xlink="http://www.w3.org/1999/xlink">
    <title>编组 16</title>
    <g id="组件库" stroke="none" stroke-width="1" fill="none" fill-rule="evenodd">
        <g id="组件库3.0" transform="translate(-907.000000, -9800.000000)" fill="currentColor" fill-rule="nonzero">
            <g id="编组-31" transform="translate(60.000000, 9460.000000)">
                <g id="编组-16" transform="translate(847.000000, 340.000000)">
                    <path d="M17.5,5.57735027 L25.4592921,10.1726497 C26.0780943,10.5299153 26.4592921,11.1901694 26.4592921,11.9047005 L26.4592921,21.0952995 C26.4592921,21.8098306 26.0780943,22.4700847 25.4592921,22.8273503 L17.5,27.4226497 C16.8811978,27.7799153 16.1188022,27.7799153 15.5,27.4226497 L7.54070786,22.8273503 C6.9219057,22.4700847 6.54070786,21.8098306 6.54070786,21.0952995 L6.54070786,11.9047005 C6.54070786,11.1901694 6.9219057,10.5299153 7.54070786,10.1726497 L15.5,5.57735027 C16.1188022,5.22008468 16.8811978,5.22008468 17.5,5.57735027 Z M16.7,6.96299092 C16.6009917,6.90582842 16.4836033,6.89439592 16.377243,6.92869342 L16.3,6.96299092 L8.34070786,11.5582904 C8.24169951,11.6154529 8.17310452,11.7113979 8.14962686,11.8206574 L8.14070786,11.9047005 L8.14070786,21.0952995 C8.14070786,21.2096245 8.18950118,21.317002 8.27238385,21.391964 L8.34070786,21.4417096 L16.3,26.0370091 C16.3990083,26.0941716 16.5163967,26.1056041 16.622757,26.0713066 L16.7,26.0370091 L24.6592921,21.4417096 C24.7583005,21.3845471 24.8268955,21.2886021 24.8503731,21.1793426 L24.8592921,21.0952995 L24.8592921,11.9047005 C24.8592921,11.7903755 24.8104988,11.682998 24.7276161,11.608036 L24.6592921,11.5582904 L16.7,6.96299092 Z" id="多边形"></path>
                    <polygon id="路径-5" points="17.3 16.5 17.3 21.5 15.7 21.5 15.7 16.5"></polygon>
                    <polygon id="路径-5" points="12.4526995 13.0971922 16.9162572 15.8168236 16.0837428 17.1831764 11.6201851 14.463545"></polygon>
                    <polygon id="路径-5" points="20.5473005 13.0971922 21.3798149 14.463545 16.9162572 17.1831764 16.0837428 15.8168236"></polygon>
                </g>
            </g>
        </g>
    </g>
</svg>
