<?xml version="1.0" encoding="UTF-8"?>
<svg width="32px" height="32px" viewBox="0 0 32 32" version="1.1" xmlns="http://www.w3.org/2000/svg" xmlns:xlink="http://www.w3.org/1999/xlink">
    <title>编组 16</title>
    <g id="组件库" stroke="none" stroke-width="1" fill="none" fill-rule="evenodd">
        <g id="组件库3.0" transform="translate(-631.000000, -9800.000000)" fill="currentColor">
            <g id="编组-31" transform="translate(60.000000, 9460.000000)">
                <g id="编组-16" transform="translate(571.000000, 340.000000)">
                    <path d="M16,5 C18.6708115,5 20.835932,7.1651205 20.835932,9.83593199 C20.835932,11.1027798 20.3388138,12.3190422 19.4514642,13.2232071 L19.0326087,13.65 L18.9599102,14.5258441 C18.8818798,15.4659248 19.5807096,16.2912669 20.5207903,16.3692973 L20.6027179,16.3741192 L21.9005656,16.3588364 C22.3436619,16.3529455 22.7867925,16.35 23.2299279,16.35 L24.7826087,16.35 C26.0072401,16.35 27,17.3427599 27,18.5673913 L27,21 C27,22.1045695 26.1045695,23 25,23 L7,23 C5.8954305,23 5,22.1045695 5,21 L5,18.5673913 C5,17.3427599 5.9927599,16.35 7.2173913,16.35 L8.7700721,16.35 C9.21320754,16.35 9.6563381,16.3529455 10.0994344,16.3588364 L11.3152174,16.375 C12.2584476,16.3875401 13.0332525,15.6330666 13.0457925,14.6898364 C13.04652,14.6351125 13.044617,14.5803853 13.0400898,14.5258441 L12.9673913,13.65 L12.5485358,13.2232071 C10.6777954,11.3170161 10.7065338,8.25520817 12.6127249,6.38446776 C13.5168898,5.49711818 14.7331521,5 16,5 Z M16,6.6 C15.1522971,6.6 14.3384432,6.93264335 13.7334272,7.52640747 C12.5051533,8.73183835 12.4418296,10.6763208 13.5566171,11.9576785 L13.6904755,12.1025048 L14.5141054,12.9417426 L14.6346064,14.3934929 C14.6433744,14.4991259 14.6470602,14.6051193 14.6456511,14.7111062 C14.6222016,16.4749206 13.2224901,17.8979364 11.4817169,17.9721179 L11.2939476,17.9748586 L10.0781646,17.958695 L9.42413279,17.9521738 L8.7700721,17.95 L7.2173913,17.95 C6.9074133,17.95 6.65079092,18.1784426 6.60669411,18.4761577 L6.6,18.5673913 L6.6,21 C6.6,21.1932997 6.7371128,21.3545749 6.91938605,21.3918734 L7,21.4 L25,21.4 C25.1932997,21.4 25.3545749,21.2628872 25.3918734,21.080614 L25.4,21 L25.4,18.5673913 C25.4,18.2574133 25.1715574,18.0007909 24.8738423,17.9566941 L24.7826087,17.95 L23.2299279,17.95 L22.5758672,17.9521738 L21.9218354,17.958695 L20.7060524,17.9748586 C20.6000655,17.9762677 20.4940721,17.9725819 20.3884391,17.9638139 C18.6305142,17.8178992 17.3081655,16.3227203 17.3550845,14.5809991 L17.3653936,14.3934929 L17.4858946,12.9417426 L18.3095245,12.1025048 C18.9032886,11.4974888 19.235932,10.6836349 19.235932,9.83593199 C19.235932,8.0487761 17.7871559,6.6 16,6.6 Z" id="矩形" fill-rule="nonzero"></path>
                    <polygon id="矩形" points="7 25 25 25 25 26.6 7 26.6"></polygon>
                </g>
            </g>
        </g>
    </g>
</svg>
