<?xml version="1.0" encoding="UTF-8"?>
<svg width="24px" height="24px" viewBox="0 0 24 24" version="1.1" xmlns="http://www.w3.org/2000/svg" xmlns:xlink="http://www.w3.org/1999/xlink">
    <title>短视频清理</title>
    <g id="组件库" stroke="none" stroke-width="1" fill="none" fill-rule="evenodd">
        <g id="组件库3.0" transform="translate(-359.000000, -9608.000000)" fill="currentColor" fill-rule="nonzero">
            <g id="编组-31" transform="translate(60.000000, 9460.000000)">
                <g id="短视频清理" transform="translate(299.000000, 148.000000)">
                    <path d="M10.5,4 C12.9852814,4 15,6.01471863 15,8.5 C15,10.9852814 12.9852814,13 10.5,13 C8.01471863,13 6,10.9852814 6,8.5 C6,6.01471863 8.01471863,4 10.5,4 Z M10.5,6 C9.11928813,6 8,7.11928813 8,8.5 C8,9.88071187 9.11928813,11 10.5,11 C11.8807119,11 13,9.88071187 13,8.5 C13,7.11928813 11.8807119,6 10.5,6 Z" id="椭圆形"></path>
                    <path d="M14,14 C16.1421954,14 17.8910789,15.6839685 17.9951047,17.8003597 L18,18 L18,21 L16,21 L16,18 C16,16.9456382 15.1841222,16.0818349 14.1492623,16.0054857 L14,16 L7,16 C5.9456382,16 5.08183488,16.8158778 5.00548574,17.8507377 L5,18 L5,21 L3,21 L3,18 C3,15.8578046 4.68396847,14.1089211 6.80035966,14.0048953 L7,14 L14,14 Z" id="路径"></path>
                    <path d="M15.5,4 C17.9852814,4 20,6.01471863 20,8.5 C20,10.9142733 18.0987635,12.8844891 15.7118357,12.995102 L15.5,13 L15.5,11 C16.8807119,11 18,9.88071187 18,8.5 C18,7.1745166 16.9684641,6.08996133 15.6643757,6.00531768 L15.5,6 L15.5,4 Z" id="路径"></path>
                    <path d="M19,16 L18.0069596,16 L18.0069596,14 L19.022,14 L19.1996403,14.0048953 C21.2498943,14.1056703 22.8943297,15.7501057 22.9951047,17.8003597 L23,18 L23,21 L21,21 L21,18 C21,16.9456382 20.1841222,16.0818349 19.1492623,16.0054857 L19,16 Z" id="路径"></path>
                </g>
            </g>
        </g>
    </g>
</svg>
