<?xml version="1.0" encoding="UTF-8"?>
<svg width="32px" height="32px" viewBox="0 0 32 32" version="1.1" xmlns="http://www.w3.org/2000/svg" xmlns:xlink="http://www.w3.org/1999/xlink">
    <title>编组 16</title>
    <g id="组件库" stroke="none" stroke-width="1" fill="none" fill-rule="evenodd">
        <g id="组件库3.0" transform="translate(-1183.000000, -9800.000000)" fill="currentColor">
            <g id="编组-31" transform="translate(60.000000, 9460.000000)">
                <g id="编组-16" transform="translate(1123.000000, 340.000000)">
                    <path d="M16,7 C19.1710037,7 21.8495435,9.10848853 22.7101075,11.9999537 L23,12 C26.3137085,12 29,14.6862915 29,18 C29,21.3137085 26.3137085,24 23,24 L19,24 L18.746963,23.9947609 L18.5,24 L9.5,24 C6.46243388,24 4,21.5375661 4,18.5 C4,15.6075632 6.23275394,13.2366139 9.06875663,13.0166575 C9.54693425,9.61592296 12.4679764,7 16,7 Z M16,8.6 C13.377642,8.6 11.1555621,10.4813393 10.6896851,13.014287 L10.6531704,13.2394421 L10.4741712,14.5124606 L9.19247884,14.6118669 C7.17263826,14.7685229 5.6,16.4602221 5.6,18.5 C5.6,20.5866008 7.23866405,22.2904711 9.29930652,22.3949253 L9.5,22.4 L18.5892142,22.3990347 L18.6802618,22.3961518 L18.8132852,22.396136 L19,22.4 L23,22.4 C25.4300529,22.4 27.4,20.4300529 27.4,18 C27.4,15.6414192 25.544228,13.7162773 23.2129502,13.6050739 L22.9997443,13.6 L21.5168864,13.599763 L21.1765855,12.4563638 C20.5011451,10.1869077 18.4051984,8.6 16,8.6 Z" id="形状结合" fill-rule="nonzero"></path>
                    <circle id="椭圆形" cx="23.25" cy="17.25" r="1.25"></circle>
                </g>
            </g>
        </g>
    </g>
</svg>
