<?xml version="1.0" encoding="UTF-8"?>
<svg width="32px" height="32px" viewBox="0 0 32 32" version="1.1" xmlns="http://www.w3.org/2000/svg" xmlns:xlink="http://www.w3.org/1999/xlink">
    <title>编组 16</title>
    <g id="组件库" stroke="none" stroke-width="1" fill="none" fill-rule="evenodd">
        <g id="组件库3.0" transform="translate(-355.000000, -9800.000000)" fill="currentColor" fill-rule="nonzero">
            <g id="编组-31" transform="translate(60.000000, 9460.000000)">
                <g id="编组-16" transform="translate(295.000000, 340.000000)">
                    <path d="M15.5,6 C21.2989899,6 26,10.7010101 26,16.5 C26,22.2989899 21.2989899,27 15.5,27 C9.70101013,27 5,22.2989899 5,16.5 C5,10.7010101 9.70101013,6 15.5,6 Z M15.5,7.6 C10.5846657,7.6 6.6,11.5846657 6.6,16.5 C6.6,21.4153343 10.5846657,25.4 15.5,25.4 C20.4153343,25.4 24.4,21.4153343 24.4,16.5 C24.4,11.5846657 20.4153343,7.6 15.5,7.6 Z" id="椭圆形"></path>
                    <path d="M18,13 C18.5522847,13 19,13.4477153 19,14 L19,19 C19,19.5522847 18.5522847,20 18,20 L13,20 C12.4477153,20 12,19.5522847 12,19 L12,14 C12,13.4477153 12.4477153,13 13,13 L18,13 Z M17.4,14.6 L13.6,14.6 L13.6,18.4 L17.4,18.4 L17.4,14.6 Z" id="矩形" transform="translate(15.500000, 16.500000) rotate(45.000000) translate(-15.500000, -16.500000) "></path>
                </g>
            </g>
        </g>
    </g>
</svg>
