<svg width="24px" height="24px" viewBox="0 0 24 24" version="1.1" xmlns="http://www.w3.org/2000/svg" xmlns:xlink="http://www.w3.org/1999/xlink">
    <title>短视频清理</title>
    <g id="组件库" stroke="none" stroke-width="1" fill="none" fill-rule="evenodd">
        <g id="组件库3.0" transform="translate(-83.000000, -9608.000000)">
            <g id="编组-31" transform="translate(60.000000, 9460.000000)">
                <g id="短视频清理" transform="translate(23.000000, 148.000000)">
                    <path d="M13.1469247,3.80284728 L20.1469247,8.70284728 C20.681578,9.07710463 21,9.68868353 21,10.3413111 L21,19 C21,20.1045695 20.1045695,21 19,21 L5,21 C3.8954305,21 3,20.1045695 3,19 L3,10.3413111 C3,9.68868353 3.31842196,9.07710463 3.85307531,8.70284728 L10.8530753,3.80284728 C11.5417156,3.32079907 12.4582844,3.32079907 13.1469247,3.80284728 Z M19,10.3413111 L12,5.44131112 L5,10.3413111 L5,19 L19,19 L19,10.3413111 Z" id="矩形" fill="currentColor" fill-rule="nonzero"></path>
                    <rect id="矩形" fill="currentColor" x="11" y="15" width="2" height="3"></rect>
                </g>
            </g>
        </g>
    </g>
</svg>
