<?xml version="1.0" encoding="UTF-8"?>
<svg width="24px" height="24px" viewBox="0 0 24 24" version="1.1" xmlns="http://www.w3.org/2000/svg" xmlns:xlink="http://www.w3.org/1999/xlink">
    <title>编组 2</title>
    <g id="组件库" stroke="none" stroke-width="1" fill="none" fill-rule="evenodd">
        <g id="组件库3.0" transform="translate(-773.000000, -9608.000000)">
            <g id="编组-31" transform="translate(60.000000, 9460.000000)">
                <g id="编组-21" transform="translate(713.000000, 148.000000)">
                    <path d="M18.1080271,3 C19.1694945,3 20.0460682,3.82922683 20.1049478,4.88905996 L20.8827256,18.88906 C20.941211,19.9417984 20.1745046,20.8495285 19.1454731,20.9831638 L18.9412962,20.99923 L5.11419515,21 C4.05983336,21 3.19603003,20.1841222 3.11968089,19.1492623 L3.11496512,18.9445086 L3.89505222,4.88905996 C3.95393184,3.82922683 4.83050552,3 5.89197293,3 L18.1080271,3 Z M18.8858048,19 L18.108,5 L5.89197293,5 L5.11419515,19 L18.8858048,19 Z" id="矩形" fill="currentColor" fill-rule="nonzero"></path>
                    <path d="M12,10 C13.1045695,10 14,9.1045695 14,8 L16,8 C16,10.209139 14.209139,12 12,12 C9.790861,12 8,10.209139 8,8 L8,8 L10,8 L10,8 C10,9.1045695 10.8954305,10 12,10 Z" id="形状结合" fill="currentColor"></path>
                    <g id="消息icon" transform="translate(8.000000, 7.000000)"></g>
                </g>
            </g>
        </g>
    </g>
</svg>
