<?xml version="1.0" encoding="UTF-8"?>
<svg width="32px" height="32px" viewBox="0 0 32 32" version="1.1" xmlns="http://www.w3.org/2000/svg" xmlns:xlink="http://www.w3.org/1999/xlink">
    <title>编组 16</title>
    <g id="组件库" stroke="none" stroke-width="1" fill="none" fill-rule="evenodd">
        <g id="组件库3.0" transform="translate(-1321.000000, -9800.000000)" fill="currentColor" fill-rule="nonzero">
            <g id="编组-31" transform="translate(60.000000, 9460.000000)">
                <g id="编组-16" transform="translate(1261.000000, 340.000000)">
                    <path d="M11.875,7 C12.4272847,7 12.875,7.44771525 12.875,8 L12.875,12 L17.4958104,9.00195538 C17.959121,8.70135314 18.5783948,8.83325436 18.878997,9.29656499 C18.9841437,9.45862492 19.0400989,9.64767158 19.0400989,9.84085348 L19.0400989,12 L24.5017108,8.86109798 C24.9805477,8.58590046 25.5918134,8.75098278 25.8670109,9.22981967 C25.9541453,9.38143142 26,9.55324168 26,9.72810887 L26,23 C26,24.1045695 25.1045695,25 24,25 L7,25 C5.8954305,25 5,24.1045695 5,23 L5,9 C5,7.8954305 5.8954305,7 7,7 L11.875,7 Z M11.275,8.6 L7,8.6 C6.80670034,8.6 6.64542508,8.7371128 6.60812658,8.91938605 L6.6,9 L6.6,23 C6.6,23.1932997 6.7371128,23.3545749 6.91938605,23.3918734 L7,23.4 L24,23.4 C24.1932997,23.4 24.3545749,23.2628872 24.3918734,23.080614 L24.4,23 L24.4,10.764 L17.4400989,14.7649742 L17.44,10.945 L11.275,14.9453656 L11.275,8.6 Z" id="矩形"></path>
                    <path d="M12,17 C12.5522847,17 13,17.4477153 13,18 L13,21 C13,21.5522847 12.5522847,22 12,22 L9,22 C8.44771525,22 8,21.5522847 8,21 L8,18 C8,17.4477153 8.44771525,17 9,17 L12,17 Z M11.4,18.6 L9.6,18.6 L9.6,20.4 L11.4,20.4 L11.4,18.6 Z" id="矩形"></path>
                </g>
            </g>
        </g>
    </g>
</svg>
