<?xml version="1.0" encoding="UTF-8"?>
<svg width="32px" height="32px" viewBox="0 0 32 32" version="1.1" xmlns="http://www.w3.org/2000/svg" xmlns:xlink="http://www.w3.org/1999/xlink">
    <title>编组 16</title>
    <g id="组件库" stroke="none" stroke-width="1" fill="none" fill-rule="evenodd">
        <g id="组件库3.0" transform="translate(-1045.000000, -9800.000000)" fill="currentColor">
            <g id="编组-31" transform="translate(60.000000, 9460.000000)">
                <g id="编组-16" transform="translate(985.000000, 340.000000)">
                    <path d="M15.8748299,6.66208176 C16.5795689,6.66208176 17.2322935,7.03298706 17.5930013,7.63841828 L18.7091559,9.51183174 C18.8895098,9.81454735 19.2158721,10 19.5682416,10 L25,10 C26.1045695,10 27,10.8954305 27,12 L27,24 C27,25.1045695 26.1045695,26 25,26 L8,26 C6.8954305,26 6,25.1045695 6,24 L6,8.66208176 C6,7.55751226 6.8954305,6.66208176 8,6.66208176 L15.8748299,6.66208176 Z M15.8748299,8.26208176 L8,8.26208176 C7.80670034,8.26208176 7.64542508,8.39919456 7.60812658,8.58146781 L7.6,8.66208176 L7.6,24 C7.6,24.1932997 7.7371128,24.3545749 7.91938605,24.3918734 L8,24.4 L25,24.4 C25.1932997,24.4 25.3545749,24.2628872 25.3918734,24.080614 L25.4,24 L25.4,12 C25.4,11.8067003 25.2628872,11.6454251 25.080614,11.6081266 L25,11.6 L19.5682416,11.6 C18.7131583,11.6 17.9169784,11.1799704 17.433372,10.484057 L17.3346188,10.3307625 L16.2184642,8.45734907 C16.1607509,8.36048007 16.0656595,8.29363039 15.9577662,8.27076528 L15.8748299,8.26208176 Z" id="矩形" fill-rule="nonzero"></path>
                    <rect id="矩形" x="13" y="15" width="7" height="1.6"></rect>
                    <rect id="矩形" x="7" y="10" width="14" height="1.6"></rect>
                    <rect id="矩形" x="13" y="19" width="7" height="1.6"></rect>
                </g>
            </g>
        </g>
    </g>
</svg>
