<?xml version="1.0" encoding="UTF-8"?>
<svg width="24px" height="24px" viewBox="0 0 24 24" version="1.1" xmlns="http://www.w3.org/2000/svg" xmlns:xlink="http://www.w3.org/1999/xlink">
    <title>编组 2</title>
    <g id="组件库" stroke="none" stroke-width="1" fill="none" fill-rule="evenodd">
        <g id="组件库3.0" transform="translate(-497.000000, -9608.000000)">
            <g id="编组-31" transform="translate(60.000000, 9460.000000)">
                <g id="编组-2" transform="translate(437.000000, 148.000000)">
                    <g id="编组-3" transform="translate(3.000000, 3.000000)">
                        <path d="M9,0 C13.9705627,0 18,4.02943725 18,9 C18,13.9705627 13.9705627,18 9,18 C4.02943725,18 0,13.9705627 0,9 C0,4.02943725 4.02943725,0 9,0 Z M9,2 C5.13400675,2 2,5.13400675 2,9 C2,12.8659932 5.13400675,16 9,16 C12.8659932,16 16,12.8659932 16,9 C16,5.13400675 12.8659932,2 9,2 Z" id="路径" fill="currentColor" fill-rule="nonzero"></path>
                        <rect id="矩形" fill="currentColor" x="8" y="8" width="9" height="2"></rect>
                        <rect id="矩形" fill="currentColor" transform="translate(9.000000, 4.500000) scale(-1, 1) translate(-9.000000, -4.500000) " x="8" y="0" width="2" height="9"></rect>
                    </g>
                </g>
            </g>
        </g>
    </g>
</svg>
