<?xml version="1.0" encoding="UTF-8"?>
<svg width="32px" height="32px" viewBox="0 0 32 32" version="1.1" xmlns="http://www.w3.org/2000/svg" xmlns:xlink="http://www.w3.org/1999/xlink">
    <title>编组 16</title>
    <g id="组件库" stroke="none" stroke-width="1" fill="none" fill-rule="evenodd">
        <g id="组件库3.0" transform="translate(-79.000000, -9922.000000)" fill="currentColor">
            <g id="编组-31" transform="translate(60.000000, 9460.000000)">
                <g id="编组-16" transform="translate(19.000000, 462.000000)">
                    <rect id="矩形" x="13" y="14" width="5" height="1.6"></rect>
                    <rect id="矩形" x="13" y="18" width="5" height="1.6"></rect>
                    <path d="M22,7 C23.1045695,7 24,7.8954305 24,9 L24,24 C24,25.1045695 23.1045695,26 22,26 L9,26 C7.8954305,26 7,25.1045695 7,24 L7,9 C7,7.8954305 7.8954305,7 9,7 L11,7 L11,8.6 L9,8.6 C8.80670034,8.6 8.64542508,8.7371128 8.60812658,8.91938605 L8.6,9 L8.6,24 C8.6,24.1932997 8.7371128,24.3545749 8.91938605,24.3918734 L9,24.4 L22,24.4 C22.1932997,24.4 22.3545749,24.2628872 22.3918734,24.080614 L22.4,24 L22.4,9 C22.4,8.80670034 22.2628872,8.64542508 22.080614,8.60812658 L22,8.6 L20,8.6 L20,7 L22,7 Z" id="形状结合" fill-rule="nonzero"></path>
                    <path d="M19,5 C19.5522847,5 20,5.44771525 20,6 L20,9 C20,9.55228475 19.5522847,10 19,10 L12,10 C11.4477153,10 11,9.55228475 11,9 L11,6 C11,5.44771525 11.4477153,5 12,5 L19,5 Z M18.4,6.6 L12.6,6.6 L12.6,8.4 L18.4,8.4 L18.4,6.6 Z" id="矩形" fill-rule="nonzero"></path>
                </g>
            </g>
        </g>
    </g>
</svg>
