<?xml version="1.0" encoding="UTF-8"?>
<svg width="32px" height="32px" viewBox="0 0 32 32" version="1.1" xmlns="http://www.w3.org/2000/svg" xmlns:xlink="http://www.w3.org/1999/xlink">
    <title>编组 16</title>
    <g id="组件库" stroke="none" stroke-width="1" fill="none" fill-rule="evenodd">
        <g id="组件库3.0" transform="translate(-217.000000, -9922.000000)" fill="currentColor">
            <g id="编组-31" transform="translate(60.000000, 9460.000000)">
                <g id="编组-16" transform="translate(157.000000, 462.000000)">
                    <path d="M16,6 C18.7614237,6 21,8.23857625 21,11 C21,13.7614237 18.7614237,16 16,16 C13.2385763,16 11,13.7614237 11,11 C11,8.23857625 13.2385763,6 16,6 Z M16,7.6 C14.1222319,7.6 12.6,9.12223185 12.6,11 C12.6,12.8777681 14.1222319,14.4 16,14.4 C17.8777681,14.4 19.4,12.8777681 19.4,11 C19.4,9.12223185 17.8777681,7.6 16,7.6 Z" id="椭圆形" fill-rule="nonzero"></path>
                    <rect id="矩形" x="15" y="23" width="1.6" height="2"></rect>
                    <path d="M21.5,17 C23.9852814,17 26,19.0147186 26,21.5 L26,23 C26,24.6568542 24.6568542,26 23,26 L9,26 C7.34314575,26 6,24.6568542 6,23 L6,21.5 C6,19.0147186 8.01471863,17 10.5,17 L21.5,17 Z M21.5,18.6 L10.5,18.6 C8.95557515,18.6 7.69312782,19.8072893 7.60492294,21.329603 L7.6,21.5 L7.6,23 C7.6,23.7277164 8.15522888,24.3257521 8.86517066,24.3935912 L9,24.4 L23,24.4 C23.7277164,24.4 24.3257521,23.8447711 24.3935912,23.1348293 L24.4,23 L24.4,21.5 C24.4,19.9555751 23.1927107,18.6931278 21.670397,18.6049229 L21.5,18.6 Z" id="矩形" fill-rule="nonzero"></path>
                </g>
            </g>
        </g>
    </g>
</svg>
