<?xml version="1.0" encoding="UTF-8"?>
<svg width="32px" height="32px" viewBox="0 0 32 32" version="1.1" xmlns="http://www.w3.org/2000/svg" xmlns:xlink="http://www.w3.org/1999/xlink">
    <title>编组 16</title>
    <g id="组件库" stroke="none" stroke-width="1" fill="none" fill-rule="evenodd">
        <g id="组件库3.0" transform="translate(-217.000000, -9800.000000)" fill="currentColor" fill-rule="nonzero">
            <g id="编组-31" transform="translate(60.000000, 9460.000000)">
                <g id="编组-16" transform="translate(157.000000, 340.000000)">
                    <path d="M16,5 C21.5228475,5 25,9.39720335 25,14.8214286 C25,18.177798 22.4155517,21.9161262 17.246655,26.0364131 C16.5628396,26.5815035 15.6108928,26.6155718 14.8935608,26.138618 L14.7533715,26.0364137 L14.3885491,25.7427693 C9.46284971,21.7383348 7,18.0978879 7,14.8214286 C7,9.39720335 10.4771525,5 16,5 Z M16,6.6 C11.60144,6.6 8.6,10.0203614 8.6,14.8214286 C8.6,17.4348086 10.6943034,20.5992641 15.0349116,24.2031908 L15.3917783,24.496362 L15.7506927,24.785274 C15.8965687,24.9015561 16.1034574,24.9015561 16.2493333,24.7852739 C21.0747701,20.9387693 23.4,17.575393 23.4,14.8214286 C23.4,10.0203614 20.39856,6.6 16,6.6 Z" id="椭圆形"></path>
                    <path d="M16,10 C18.209139,10 20,11.790861 20,14 C20,16.209139 18.209139,18 16,18 C13.790861,18 12,16.209139 12,14 C12,11.790861 13.790861,10 16,10 Z M16,11.6 C14.6745166,11.6 13.6,12.6745166 13.6,14 C13.6,15.3254834 14.6745166,16.4 16,16.4 C17.3254834,16.4 18.4,15.3254834 18.4,14 C18.4,12.6745166 17.3254834,11.6 16,11.6 Z" id="椭圆形"></path>
                </g>
            </g>
        </g>
    </g>
</svg>
