<?xml version="1.0" encoding="UTF-8"?>
<svg width="32px" height="32px" viewBox="0 0 32 32" version="1.1" xmlns="http://www.w3.org/2000/svg" xmlns:xlink="http://www.w3.org/1999/xlink">
    <title>编组 16</title>
    <g id="组件库" stroke="none" stroke-width="1" fill="none" fill-rule="evenodd">
        <g id="组件库3.0" transform="translate(-493.000000, -9800.000000)">
            <g id="编组-31" transform="translate(60.000000, 9460.000000)">
                <g id="编组-16" transform="translate(433.000000, 340.000000)">
                    <path d="M15.5,6 C21.2989899,6 26,10.7010101 26,16.5 C26,22.2989899 21.2989899,27 15.5,27 C9.70101013,27 5,22.2989899 5,16.5 C5,10.7010101 9.70101013,6 15.5,6 Z M15.5,7.6 C10.5846657,7.6 6.6,11.5846657 6.6,16.5 C6.6,21.4153343 10.5846657,25.4 15.5,25.4 C20.4153343,25.4 24.4,21.4153343 24.4,16.5 C24.4,11.5846657 20.4153343,7.6 15.5,7.6 Z" id="椭圆形" fill="currentColor" fill-rule="nonzero"></path>
                    <line x1="15.4635577" y1="14.7196314" x2="15.5" y2="22.5" id="路径-5" stroke="currentColor" stroke-width="1.6"></line>
                    <line x1="19.5" y1="17.5" x2="11.5" y2="17.5" id="路径-5" stroke="currentColor" stroke-width="1.6"></line>
                    <polygon id="路径-8" fill="currentColor" fill-rule="nonzero" points="18.1965216 11.4462775 19.3278925 12.5776483 15.5 16.4055408 11.6721075 12.5776483 12.8034784 11.4462775 15.5 14.143"></polygon>
                </g>
            </g>
        </g>
    </g>
</svg>
