<?xml version="1.0" encoding="UTF-8"?>
<svg width="24px" height="24px" viewBox="0 0 24 24" version="1.1" xmlns="http://www.w3.org/2000/svg" xmlns:xlink="http://www.w3.org/1999/xlink">
    <title>短视频清理</title>
    <g id="组件库" stroke="none" stroke-width="1" fill="none" fill-rule="evenodd">
        <g id="组件库3.0" transform="translate(-635.000000, -9608.000000)" fill="currentColor">
            <g id="编组-31" transform="translate(60.000000, 9460.000000)">
                <g id="短视频清理" transform="translate(575.000000, 148.000000)">
                    <path d="M14,5 L14,7 L5,7 L5,19 L18,19 L18,11 L20,11 L20,19 C20,20.1045695 19.1045695,21 18,21 L5,21 C3.8954305,21 3,20.1045695 3,19 L3,7 C3,5.8954305 3.8954305,5 5,5 L14,5 Z" id="形状结合"></path>
                    <rect id="矩形" x="8" y="12" width="2" height="4"></rect>
                    <rect id="矩形" x="12" y="10" width="2" height="6"></rect>
                    <rect id="矩形" x="18" y="3" width="2" height="6"></rect>
                    <rect id="矩形" x="16" y="5" width="6" height="2"></rect>
                </g>
            </g>
        </g>
    </g>
</svg>
