<?xml version="1.0" encoding="UTF-8"?>
<svg width="32px" height="32px" viewBox="0 0 32 32" version="1.1" xmlns="http://www.w3.org/2000/svg" xmlns:xlink="http://www.w3.org/1999/xlink">
    <title>编组 16</title>
    <g id="组件库" stroke="none" stroke-width="1" fill="none" fill-rule="evenodd">
        <g id="组件库3.0" transform="translate(-769.000000, -9800.000000)" fill="currentColor" fill-rule="nonzero">
            <g id="编组-31" transform="translate(60.000000, 9460.000000)">
                <g id="编组-16" transform="translate(709.000000, 340.000000)">
                    <path d="M17,5.57735027 L24.5262794,9.92264973 C25.1450816,10.2799153 25.5262794,10.9401694 25.5262794,11.6547005 L25.5262794,20.3452995 C25.5262794,21.0598306 25.1450816,21.7200847 24.5262794,22.0773503 L17,26.4226497 C16.3811978,26.7799153 15.6188022,26.7799153 15,26.4226497 L7.47372056,22.0773503 C6.8549184,21.7200847 6.47372056,21.0598306 6.47372056,20.3452995 L6.47372056,11.6547005 C6.47372056,10.9401694 6.8549184,10.2799153 7.47372056,9.92264973 L15,5.57735027 C15.6188022,5.22008468 16.3811978,5.22008468 17,5.57735027 Z M16.2,6.96299092 C16.1009917,6.90582842 15.9836033,6.89439592 15.877243,6.92869342 L15.8,6.96299092 L8.27372056,11.3082904 C8.17471221,11.3654529 8.10611722,11.4613979 8.08263956,11.5706574 L8.07372056,11.6547005 L8.07372056,20.3452995 C8.07372056,20.4596245 8.12251388,20.567002 8.20539655,20.641964 L8.27372056,20.6917096 L15.8,25.0370091 C15.8990083,25.0941716 16.0163967,25.1056041 16.122757,25.0713066 L16.2,25.0370091 L23.7262794,20.6917096 C23.8252878,20.6345471 23.8938828,20.5386021 23.9173604,20.4293426 L23.9262794,20.3452995 L23.9262794,11.6547005 C23.9262794,11.5403755 23.8774861,11.432998 23.7946034,11.358036 L23.7262794,11.3082904 L16.2,6.96299092 Z" id="多边形" transform="translate(16.000000, 16.000000) rotate(90.000000) translate(-16.000000, -16.000000) "></path>
                    <path d="M16,12 C18.209139,12 20,13.790861 20,16 C20,18.209139 18.209139,20 16,20 C13.790861,20 12,18.209139 12,16 C12,13.790861 13.790861,12 16,12 Z M16,13.6 C14.6745166,13.6 13.6,14.6745166 13.6,16 C13.6,17.3254834 14.6745166,18.4 16,18.4 C17.3254834,18.4 18.4,17.3254834 18.4,16 C18.4,14.6745166 17.3254834,13.6 16,13.6 Z" id="椭圆形"></path>
                </g>
            </g>
        </g>
    </g>
</svg>
